<svg width="16" height="16" viewBox="0 0 16 16" fill="none" xmlns="http://www.w3.org/2000/svg">
<path d="M13.0292 1.18474L1.6624 7.73976C0.722455 8.28351 0.812624 9.6743 1.81815 10.0869L4.94128 11.3793V13.6855C4.94128 14.9533 6.55886 15.4752 7.30753 14.4669L8.50432 12.8521L11.5619 14.1144C11.7231 14.18 11.8925 14.2128 12.0619 14.2128C12.286 14.2128 12.5073 14.1554 12.7068 14.0434C13.0565 13.8467 13.2969 13.4969 13.3598 13.1007L14.9828 2.52088C15.1495 1.42519 13.9746 0.640995 13.0292 1.18474ZM6.25283 13.6855V11.9203L7.25289 12.3329L6.25283 13.6855ZM12.0619 12.9013L7.85948 11.1662L11.6903 5.63855C11.9827 5.21503 11.4307 4.7232 11.0427 5.05928L5.2637 10.0951L2.31818 8.87644L13.6849 2.31869L12.0619 12.9013Z" fill="black"/>
</svg>
