<svg width="16" height="16" viewBox="0 0 16 16" fill="none" xmlns="http://www.w3.org/2000/svg">
<path d="M15.1692 11.5012C15.1692 11.2271 15.0019 10.9817 14.747 10.8807L13.3521 10.3313C13.0425 10.2089 12.7952 9.96147 12.6731 9.65223L12.1226 8.2564C12.0224 8.00184 11.7763 7.83452 11.5025 7.83452C11.2288 7.83452 10.9827 8.00184 10.8824 8.25639L10.3319 9.65223C10.2099 9.96147 9.96247 10.2089 9.65388 10.3306L8.25804 10.8807C8.00316 10.9817 7.83584 11.2271 7.83584 11.5012C7.83584 11.7753 8.00316 12.0207 8.25804 12.1216L9.6529 12.6711C9.96248 12.7935 10.2099 13.0409 10.3319 13.3501L10.8824 14.746C10.9827 15.0005 11.2288 15.1679 11.5025 15.1679C11.7763 15.1679 12.0224 15.0005 12.1226 14.746L12.6731 13.3501C12.7952 13.0409 13.0426 12.7935 13.3511 12.6718L14.747 12.1216C15.0019 12.0207 15.1692 11.7753 15.1692 11.5012ZM11.5025 12.7004C11.2528 12.1776 10.8274 11.7518 10.3036 11.5012C10.8271 11.2505 11.2525 10.8254 11.5025 10.302C11.7522 10.8248 12.1776 11.2505 12.7014 11.5012C12.178 11.7518 11.7525 12.177 11.5025 12.7004Z" fill="black"/>
<path d="M13.9391 9.35026C14.3132 9.37044 14.6231 9.09375 14.6455 8.72591C14.6605 8.48437 14.6676 8.24219 14.6676 8.00065C14.6676 7.12435 14.5729 6.26823 14.387 5.46223C14.265 4.9056 13.959 4.39583 13.5218 4.01757C13.501 3.99479 13.4782 3.9733 13.4541 3.95377C12.3831 3.07552 11.1751 2.37044 9.86263 1.85742L9.02539 1.5319C8.37565 1.27083 7.63053 1.27149 6.98926 1.52865L6.13412 1.85807C4.82552 2.37305 3.62044 3.07812 2.55208 3.95377C2.54297 3.96159 2.53255 3.97005 2.52246 3.97981C2.21285 4.24027 1.97282 4.56819 1.80701 4.92728C1.8027 4.93518 1.79504 4.93977 1.79102 4.94791C1.78731 4.95544 1.78825 4.96362 1.78483 4.97123C1.71554 5.12891 1.6569 5.29069 1.62012 5.45833C1.24121 7.13411 1.24154 8.89258 1.61914 10.5378C1.74642 11.1178 2.07682 11.6536 2.54948 12.0449C2.56999 12.0618 2.5918 12.0775 2.61426 12.0918C3.66049 12.9401 4.8418 13.6276 6.12663 14.1361L6.97689 14.4707C7.30794 14.6016 7.6556 14.6673 8.00326 14.6673C8.35091 14.6673 8.69857 14.6016 9.0293 14.4707C9.37174 14.3353 9.53939 13.9479 9.40397 13.6055C9.26888 13.2637 8.88216 13.0951 8.53906 13.2311C8.19336 13.3678 7.81282 13.3685 7.46647 13.2305L6.61654 12.8958C5.43815 12.4297 4.35742 11.7969 3.4043 11.0156C3.38834 11.0026 3.37174 10.9902 3.35449 10.9785C3.13444 10.7813 2.98144 10.5247 2.92024 10.2461C2.61991 8.93779 2.60436 7.55404 2.84436 6.20911L3.84928 6.70285V8.6849C3.84928 9.05339 4.14778 9.35157 4.51595 9.35157C4.88412 9.35157 5.18262 9.05339 5.18262 8.6849V7.35791L7.70996 8.59961C7.80274 8.64453 7.903 8.66732 8.00326 8.66732C8.11328 8.66732 8.22298 8.63997 8.32227 8.58594L13.1227 5.97067C13.2569 6.62195 13.3343 7.30061 13.3343 8.00065C13.3343 8.21484 13.3278 8.42968 13.3148 8.64387C13.292 9.01171 13.5716 9.32747 13.9391 9.35026ZM4.83216 5.70064L3.39026 4.99219L3.3916 4.99089C3.39941 4.98437 3.4082 4.97721 3.41699 4.96875C4.37304 4.18881 5.45117 3.5599 6.61816 3.10027L7.47721 2.76889C7.81152 2.63542 8.19498 2.63542 8.5358 2.77149L9.37825 3.09962C9.42102 3.11635 9.46146 3.13713 9.50398 3.15431L4.83216 5.70064ZM7.98698 7.25065L6.29724 6.42045L10.981 3.86759C11.4845 4.15531 11.9627 4.48051 12.4166 4.8372L7.98698 7.25065Z" fill="black"/>
</svg>
