<svg width="16" height="16" viewBox="0 0 16 16" fill="none" xmlns="http://www.w3.org/2000/svg">
<g clip-path="url(#clip0_75594_16346)">
<path d="M9.498 7.99805V1.83203H3.998C3.18664 1.83219 2.47684 2.28127 2.10835 2.94238C1.97389 3.18322 1.6697 3.26984 1.42866 3.13574C1.18746 3.0013 1.10086 2.69628 1.2353 2.45508C1.77336 1.48991 2.80985 0.83219 3.998 0.832031H9.998C10.2741 0.832031 10.498 1.0559 10.498 1.33203V7.99805C10.498 9.0075 9.67444 9.83203 8.66499 9.83203H7.998C7.72209 9.83184 7.49811 9.60796 7.498 9.33203C7.498 9.05601 7.72203 8.83222 7.998 8.83203H8.66499C9.12217 8.83203 9.498 8.45523 9.498 7.99805Z" fill="black"/>
<path fill-rule="evenodd" clip-rule="evenodd" d="M5.32812 11.4999C6.16432 11.5 6.87218 12.066 7.09082 12.8339C6.87342 12.0642 6.16754 11.4999 5.32812 11.4999ZM3.56314 12.8339C3.77394 12.0883 4.44525 11.5354 5.25012 11.5016C4.44815 11.5355 3.77497 12.09 3.56314 12.8339Z" fill="black"/>
<path fill-rule="evenodd" clip-rule="evenodd" d="M12.4238 12.8339C12.2052 12.066 11.4974 11.4999 10.6611 11.4999C11.5008 11.4999 12.2058 12.0639 12.4238 12.8339ZM8.98643 12.5915C9.26616 11.9578 9.89395 11.5131 10.6286 11.5002C9.89697 11.5131 9.26804 11.9592 8.98643 12.5915Z" fill="black"/>
<path fill-rule="evenodd" clip-rule="evenodd" d="M12.6449 6.50171C12.5636 6.50992 12.4974 6.5787 12.4943 6.66106C12.4974 6.58062 12.566 6.51272 12.6449 6.50171Z" fill="black"/>
<path d="M5.32812 4.83361C5.60421 4.83366 5.82812 5.05751 5.82812 5.33361C5.82812 5.60971 5.60421 5.83356 5.32812 5.83361H1.32812C1.05199 5.83361 0.828125 5.60975 0.828125 5.33361C0.828125 5.05747 1.05199 4.83361 1.32812 4.83361H5.32812Z" fill="black"/>
<path d="M3.99512 6.83333C4.27107 6.83354 4.49512 7.05732 4.49512 7.33333C4.49512 7.60933 4.27107 7.83311 3.99512 7.83333H1.32812C1.05199 7.83333 0.828125 7.60946 0.828125 7.33333C0.828125 7.05719 1.05199 6.83333 1.32812 6.83333H3.99512Z" fill="black"/>
<path d="M2.66113 8.83304C2.93727 8.83304 3.16113 9.05691 3.16113 9.33304C3.16113 9.60918 2.93727 9.83304 2.66113 9.83304H1.32812C1.05199 9.83304 0.828125 9.60918 0.828125 9.33304C0.828125 9.05691 1.05199 8.83304 1.32812 8.83304H2.66113Z" fill="black"/>
<path fill-rule="evenodd" clip-rule="evenodd" d="M12.8135 3.75577C12.4863 3.19249 11.8839 2.83406 11.2217 2.83389H9.99414C9.7182 2.83413 9.49414 3.0579 9.49414 3.33389V8.00089C9.4939 8.45787 9.11816 8.83389 8.66113 8.83389H7.99414C7.71823 8.83416 7.49512 9.05792 7.49512 9.33389C7.4952 9.6098 7.71828 9.83363 7.99414 9.83389H8.66113C9.67044 9.83389 10.4939 9.01013 10.4941 8.00089V3.83389H11.2217C11.4818 3.83404 11.7264 3.95784 11.8857 4.16495L11.9492 4.2587L12.6592 5.50089C12.0174 5.50197 11.4943 6.02488 11.4941 6.6669V8.6669C11.4941 9.30968 12.0184 9.83387 12.6611 9.83389H14.1611V11.3339C14.161 12.1643 13.4916 12.8339 12.6611 12.8339H12.4238C12.2052 12.066 11.4974 11.4999 10.6611 11.4999L10.6286 11.5002C9.89395 11.5131 9.26616 11.9578 8.98643 12.5915C8.95193 12.6697 8.9219 12.7505 8.89844 12.8339H7.09082C6.87218 12.066 6.16432 11.5 5.32812 11.4999C5.30199 11.4999 5.27599 11.5005 5.25012 11.5016C4.44525 11.5354 3.77394 12.0883 3.56314 12.8339H3.32812C2.49769 12.8339 1.82823 12.1643 1.82812 11.3339C1.82812 11.0578 1.60426 10.8339 1.32812 10.8339C1.05199 10.8339 0.828125 11.0578 0.828125 11.3339C0.828233 12.7166 1.94542 13.8339 3.32812 13.8339H3.56385C3.78196 14.6027 4.48894 15.1662 5.32742 15.1663C6.16604 15.1663 6.87362 14.6028 7.09192 13.8339H8.90031C9.11842 14.6027 9.82538 15.1662 10.6639 15.1663C11.5025 15.1663 12.2101 14.6028 12.4284 13.8339H12.6611C14.0438 13.8339 15.161 12.7166 15.1611 11.3339V9.33389L15.1642 8.00018C15.1642 7.91335 15.1408 7.82757 15.0978 7.75214L12.8135 3.75577ZM12.6611 6.50089C12.6557 6.50089 12.6502 6.50117 12.6449 6.50171C12.566 6.51272 12.4974 6.58062 12.4943 6.66106L12.4941 8.6669C12.4941 8.75741 12.5706 8.83387 12.6611 8.83389L14.1642 8.83319V8.13202L13.2325 6.50018L12.6611 6.50089ZM10.6639 14.1663C10.2038 14.1662 9.82812 13.794 9.82812 13.3339C9.82812 12.8767 10.204 12.5 10.6611 12.4999C11.1183 12.4999 11.4941 12.8767 11.4941 13.3339C11.4941 13.7941 11.1241 14.1663 10.6639 14.1663ZM5.32812 12.4999C4.87095 12.4999 4.49512 12.8767 4.49512 13.3339C4.49512 13.794 4.86733 14.1662 5.32742 14.1663C5.78765 14.1663 6.16113 13.7941 6.16113 13.3339C6.16113 12.8767 5.78526 12.5 5.32812 12.4999Z" fill="black"/>
</g>
<defs>
<clipPath id="clip0_75594_16346">
<rect width="15.9996" height="15.9996" fill="white"/>
</clipPath>
</defs>
</svg>
