<svg width="101" height="36" viewBox="0 0 101 36" fill="none" xmlns="http://www.w3.org/2000/svg">
<path d="M14.9953 30.9991C14.9953 33.7602 12.757 35.9986 9.99584 35.9986C7.23473 35.9986 4.9964 33.7602 4.9964 30.9991C4.9964 28.238 7.23473 25.9997 9.99584 25.9997C12.757 25.9997 14.9953 28.238 14.9953 30.9991ZM6.95105 30.9991C6.95105 32.6807 8.31425 34.0439 9.99584 34.0439C11.6774 34.0439 13.0406 32.6807 13.0406 30.9991C13.0406 29.3175 11.6774 27.9543 9.99584 27.9543C8.31425 27.9543 6.95105 29.3175 6.95105 30.9991Z" fill="black"/>
<path d="M14.8283 30.9986C14.8281 28.3298 12.6643 26.1667 9.99535 26.1667C7.32664 26.1669 5.16362 28.3299 5.16339 30.9986C5.16339 33.6675 7.3265 35.8314 9.99535 35.8316L9.99584 35.9986L9.73852 35.9917C7.097 35.8578 4.9964 33.6739 4.9964 30.9991C4.9964 28.238 7.23473 25.9997 9.99584 25.9997C12.757 25.9997 14.9953 28.238 14.9953 30.9991L14.9884 31.2565C14.8545 33.8979 12.6706 35.9986 9.99584 35.9986L9.99535 35.8316C12.6644 35.8316 14.8283 33.6677 14.8283 30.9986ZM13.0406 30.9991C13.0404 29.3704 11.7611 28.0403 10.1526 27.9586L9.99584 27.9543C8.31425 27.9543 6.95105 29.3175 6.95105 30.9991L6.95536 31.1559C7.03697 32.7644 8.36706 34.0437 9.99584 34.0439C11.6774 34.0439 13.0406 32.6807 13.0406 30.9991ZM13.2072 30.9986C13.2072 32.7723 11.769 34.2105 9.99535 34.2105C8.22194 34.2103 6.78446 32.7721 6.78446 30.9986C6.78469 29.2254 8.22208 27.788 9.99535 27.7878C11.7688 27.7878 13.207 29.2252 13.2072 30.9986Z" fill="black"/>
<path d="M12.3309 30.9992C12.3309 32.2877 11.2864 33.3323 9.99785 33.3323C8.70933 33.3323 7.66478 32.2877 7.66478 30.9992C7.66478 29.7107 8.70933 28.6661 9.99785 28.6661C11.2864 28.6661 12.3309 29.7107 12.3309 30.9992ZM9.53823 30.9992C9.53823 31.253 9.74401 31.4588 9.99785 31.4588C10.2517 31.4588 10.4575 31.253 10.4575 30.9992C10.4575 30.7454 10.2517 30.5396 9.99785 30.5396C9.74401 30.5396 9.53823 30.7454 9.53823 30.9992Z" fill="black"/>
<path d="M12.1639 30.9992C12.1639 29.8027 11.1943 28.8331 9.99785 28.8331C8.80139 28.8332 7.83181 29.8027 7.83177 30.9992C7.83177 32.1957 8.80136 33.1652 9.99785 33.1653L9.99785 33.3323C8.70933 33.3323 7.66478 32.2877 7.66478 30.9992C7.66478 29.7107 8.70933 28.6661 9.99785 28.6661C11.2864 28.6661 12.3309 29.7107 12.3309 30.9992C12.3309 32.2877 11.2864 33.3323 9.99785 33.3323L9.99785 33.1653C11.1944 33.1653 12.1639 32.1957 12.1639 30.9992ZM10.4575 30.9992C10.4575 30.7454 10.2517 30.5396 9.99785 30.5396C9.74401 30.5396 9.53823 30.7454 9.53823 30.9992C9.53823 31.2212 9.69574 31.4065 9.90507 31.4494L9.99785 31.4588C10.2199 31.4588 10.4052 31.3014 10.4481 31.092L10.4575 30.9992ZM10.6238 30.9992C10.6238 31.3451 10.3437 31.6252 9.99785 31.6252C9.652 31.6252 9.37186 31.3451 9.37186 30.9992C9.37189 30.6534 9.65202 30.3732 9.99785 30.3732C10.3437 30.3732 10.6238 30.6533 10.6238 30.9992Z" fill="black"/>
<path d="M23.3312 30.9992C23.3312 32.2877 22.2866 33.3323 20.9981 33.3323C19.7096 33.3323 18.665 32.2877 18.665 30.9992C18.665 29.7107 19.7096 28.6661 20.9981 28.6661C22.2866 28.6661 23.3312 29.7107 23.3312 30.9992ZM20.5385 30.9992C20.5385 31.253 20.7443 31.4588 20.9981 31.4588C21.2519 31.4588 21.4577 31.253 21.4577 30.9992C21.4577 30.7454 21.2519 30.5396 20.9981 30.5396C20.7443 30.5396 20.5385 30.7454 20.5385 30.9992Z" fill="black"/>
<path d="M23.1642 30.9992C23.1641 29.8027 22.1946 28.8331 20.9981 28.8331C19.8016 28.8332 18.8321 29.8027 18.832 30.9992C18.832 32.1957 19.8016 33.1652 20.9981 33.1653V33.3323C19.7096 33.3323 18.665 32.2877 18.665 30.9992C18.665 29.7107 19.7096 28.6661 20.9981 28.6661C22.2866 28.6661 23.3312 29.7107 23.3312 30.9992C23.3312 32.2877 22.2866 33.3323 20.9981 33.3323V33.1653C22.1946 33.1653 23.1642 32.1957 23.1642 30.9992ZM21.4577 30.9992C21.4577 30.7454 21.2519 30.5396 20.9981 30.5396C20.7443 30.5396 20.5385 30.7454 20.5385 30.9992C20.5385 31.2212 20.696 31.4065 20.9053 31.4494L20.9981 31.4588C21.2202 31.4588 21.4054 31.3014 21.4483 31.092L21.4577 30.9992ZM21.6241 30.9992C21.6241 31.3451 21.344 31.6252 20.9981 31.6252C20.6522 31.6252 20.3721 31.3451 20.3721 30.9992C20.3721 30.6534 20.6523 30.3732 20.9981 30.3732C21.344 30.3732 21.6241 30.6533 21.6241 30.9992Z" fill="black"/>
<path d="M4.60248 27.0199C4.54767 26.4704 4.05244 26.0598 3.52478 26.2227C3.05867 26.3666 2.6144 26.5785 2.20681 26.853C1.52151 27.3145 0.961274 27.9386 0.5762 28.6696C0.191126 29.4006 -0.00678136 30.2157 0.000177363 31.0418C0.00713608 31.868 0.218743 32.6796 0.616076 33.404L2.32985 32.464C2.08787 32.0228 1.95899 31.5285 1.95476 31.0254C1.95052 30.5222 2.07105 30.0258 2.30557 29.5806C2.54009 29.1354 2.88129 28.7553 3.29865 28.4742C3.53083 28.3179 3.78256 28.1949 4.04643 28.1079C4.39608 27.9927 4.66762 27.673 4.63108 27.3067L4.60248 27.0199Z" fill="black"/>
<path d="M3.52478 26.2227C4.05244 26.0598 4.54767 26.4704 4.60248 27.0199L4.63108 27.3067C4.66762 27.673 4.39608 27.9927 4.04643 28.1079L3.85059 28.1803C3.65779 28.2588 3.47262 28.3571 3.29865 28.4742L3.14551 28.5845C2.79755 28.8516 2.51071 29.1912 2.30557 29.5806L2.22266 29.7496C2.04255 30.1496 1.95111 30.5852 1.95476 31.0254C1.95899 31.5285 2.08787 32.0228 2.32985 32.464L0.616076 33.404L0.475586 33.1285C0.168813 32.4766 0.00626617 31.7647 0.000177363 31.0418C-0.00678136 30.2157 0.191126 29.4006 0.5762 28.6696C0.91315 28.03 1.38446 27.4724 1.95605 27.0338L2.20681 26.853C2.6144 26.5785 3.05867 26.3666 3.52478 26.2227ZM4.43652 27.0367C4.38971 26.5674 3.97875 26.2576 3.57422 26.3824C3.12369 26.5215 2.69378 26.7255 2.2998 26.9908C1.63735 27.4369 1.09587 28.041 0.723633 28.7476C0.351484 29.4542 0.160266 30.2421 0.166992 31.0406C0.173276 31.7836 0.352557 32.5133 0.686523 33.1754L2.10742 32.3951C1.90171 31.9687 1.79211 31.5017 1.78809 31.0269C1.78362 30.4962 1.91085 29.9721 2.1582 29.5025C2.40545 29.0333 2.76525 28.6328 3.20508 28.3365C3.44992 28.1716 3.71588 28.0415 3.99414 27.9498C4.29107 27.8519 4.49159 27.591 4.46484 27.3228L4.43652 27.0367Z" fill="black"/>
<path d="M25.9975 30.9991C25.9975 33.7602 23.7591 35.9986 20.998 35.9986C18.2369 35.9986 15.9986 33.7602 15.9986 30.9991C15.9986 28.238 18.2369 25.9997 20.998 25.9997C23.7591 25.9997 25.9975 28.238 25.9975 30.9991ZM17.9532 30.9991C17.9532 32.6807 19.3164 34.0439 20.998 34.0439C22.6796 34.0439 24.0428 32.6807 24.0428 30.9991C24.0428 29.3175 22.6796 27.9543 20.998 27.9543C19.3164 27.9543 17.9532 29.3175 17.9532 30.9991Z" fill="black"/>
<path d="M25.8305 30.9986C25.8303 28.3298 23.6664 26.1667 20.9975 26.1667C18.3288 26.1669 16.1658 28.3299 16.1656 30.9986C16.1656 33.6675 18.3287 35.8314 20.9975 35.8316L20.998 35.9986L20.7407 35.9917C18.0992 35.8578 15.9986 33.6739 15.9986 30.9991C15.9986 28.238 18.2369 25.9997 20.998 25.9997C23.7591 25.9997 25.9975 28.238 25.9975 30.9991L25.9906 31.2565C25.8567 33.8979 23.6728 35.9986 20.998 35.9986L20.9975 35.8316C23.6666 35.8316 25.8305 33.6677 25.8305 30.9986ZM24.0428 30.9991C24.0426 29.3704 22.7633 28.0403 21.1548 27.9586L20.998 27.9543C19.3164 27.9543 17.9532 29.3175 17.9532 30.9991L17.9575 31.1559C18.0392 32.7644 19.3693 34.0437 20.998 34.0439C22.6796 34.0439 24.0428 32.6807 24.0428 30.9991ZM24.2094 30.9986C24.2094 32.7723 22.7712 34.2105 20.9975 34.2105C19.2241 34.2103 17.7867 32.7721 17.7867 30.9986C17.7869 29.2254 19.2243 27.788 20.9975 27.7878C22.771 27.7878 24.2092 29.2252 24.2094 30.9986Z" fill="black"/>
<path d="M28.3291 27.3329C28.3291 26.5966 28.926 25.9997 29.6623 25.9997H50.66C51.3963 25.9997 51.9932 26.5966 51.9932 27.3329C51.9932 28.0692 51.3963 28.6661 50.66 28.6661H29.6623C28.926 28.6661 28.3291 28.0692 28.3291 27.3329Z" fill="black"/>
<path d="M50.6602 28.4997L50.66 28.6661H29.6623L29.6621 28.4997H50.6602ZM51.8262 27.3327C51.8261 26.6886 51.3043 26.1668 50.6602 26.1667H29.6621C29.018 26.1668 28.4962 26.6886 28.4961 27.3327C28.4961 27.9769 29.018 28.4996 29.6621 28.4997L29.6623 28.6661C28.926 28.6661 28.3291 28.0692 28.3291 27.3329C28.3291 26.5966 28.926 25.9997 29.6623 25.9997H50.66L50.7959 26.0065C51.4683 26.0746 51.9931 26.6426 51.9932 27.3329L51.9864 27.4694C51.9225 28.0969 51.4235 28.5953 50.7959 28.6589L50.66 28.6661L50.6602 28.4997C51.3044 28.4996 51.8262 27.9769 51.8262 27.3327Z" fill="black"/>
<path d="M63.8801 30.8276C63.8801 33.5887 61.6418 35.827 58.8807 35.827C56.1196 35.827 53.8812 33.5887 53.8812 30.8276C53.8812 28.0665 56.1196 25.8282 58.8807 25.8282C61.6418 25.8282 63.8801 28.0665 63.8801 30.8276ZM55.8359 30.8276C55.8359 32.5092 57.1991 33.8724 58.8807 33.8724C60.5623 33.8724 61.9255 32.5092 61.9255 30.8276C61.9255 29.146 60.5623 27.7828 58.8807 27.7828C57.1991 27.7828 55.8359 29.146 55.8359 30.8276Z" fill="black"/>
<path d="M63.7131 30.8271C63.7129 28.1583 61.5491 25.9951 58.8802 25.9951C56.2115 25.9954 54.0485 28.1584 54.0482 30.8271C54.0482 33.496 56.2113 35.6598 58.8802 35.66L58.8807 35.827L58.6234 35.8202C55.9818 35.6863 53.8812 33.5024 53.8812 30.8276C53.8812 28.0665 56.1196 25.8282 58.8807 25.8282C61.6418 25.8282 63.8801 28.0665 63.8801 30.8276L63.8733 31.0849C63.7393 33.7264 61.5554 35.827 58.8807 35.827L58.8802 35.66C61.5492 35.66 63.7131 33.4961 63.7131 30.8271ZM61.9255 30.8276C61.9253 29.1988 60.646 27.8687 59.0374 27.7871L58.8807 27.7828C57.1991 27.7828 55.8359 29.146 55.8359 30.8276L55.8402 30.9843C55.9218 32.5929 57.2519 33.8722 58.8807 33.8724C60.5623 33.8724 61.9255 32.5092 61.9255 30.8276ZM62.0921 30.8271C62.0921 32.6007 60.6538 34.039 58.8802 34.039C57.1068 34.0387 55.6693 32.6006 55.6693 30.8271C55.6695 29.0538 57.1069 27.6164 58.8802 27.6162C60.6537 27.6162 62.0918 29.0537 62.0921 30.8271Z" fill="black"/>
<path d="M61.0478 30.8341C61.0478 32.0306 60.0778 33.0005 58.8814 33.0005C57.6849 33.0005 56.7149 32.0306 56.7149 30.8341C56.7149 29.6376 57.6849 28.6677 58.8814 28.6677C60.0778 28.6677 61.0478 29.6376 61.0478 30.8341Z" fill="black"/>
<path d="M60.8808 30.8336C60.8806 29.7294 59.9851 28.8347 58.8809 28.8347C57.7768 28.8349 56.8821 29.7295 56.8819 30.8336C56.8819 31.9379 57.7766 32.8333 58.8809 32.8335L58.8814 33.0005L58.6602 32.9888C57.5676 32.878 56.7149 31.9559 56.7149 30.8341C56.7149 29.6376 57.6849 28.6677 58.8814 28.6677C60.0778 28.6677 61.0478 29.6376 61.0478 30.8341L61.0361 31.0553C60.9252 32.1478 60.0031 33.0005 58.8814 33.0005L58.8809 32.8335C59.9853 32.8335 60.8808 31.938 60.8808 30.8336Z" fill="black"/>
<path d="M87.3782 30.8275C87.3782 33.5886 85.1399 35.827 82.3788 35.827C79.6176 35.827 77.3793 33.5886 77.3793 30.8275C77.3793 28.0664 79.6176 25.8281 82.3788 25.8281C85.1399 25.8281 87.3782 28.0664 87.3782 30.8275ZM79.334 30.8275C79.334 32.5091 80.6972 33.8723 82.3788 33.8723C84.0603 33.8723 85.4235 32.5091 85.4235 30.8275C85.4235 29.1459 84.0603 27.7827 82.3788 27.7827C80.6972 27.7827 79.334 29.1459 79.334 30.8275Z" fill="black"/>
<path d="M87.2112 30.827C87.211 28.1582 85.0472 25.9951 82.3783 25.9951C79.7095 25.9953 77.5465 28.1583 77.5463 30.827C77.5463 33.4959 79.7094 35.6597 82.3783 35.66L82.3788 35.827L82.1214 35.8201C79.4799 35.6862 77.3793 33.5023 77.3793 30.8275C77.3793 28.0664 79.6176 25.8281 82.3788 25.8281C85.1399 25.8281 87.3782 28.0664 87.3782 30.8275L87.3714 31.0848C87.2374 33.7263 85.0535 35.827 82.3788 35.827L82.3783 35.66C85.0473 35.66 87.2112 33.4961 87.2112 30.827ZM85.4235 30.8275C85.4233 29.1987 84.144 27.8686 82.5355 27.787L82.3788 27.7827C80.6972 27.7827 79.334 29.1459 79.334 30.8275L79.3383 30.9843C79.4199 32.5928 80.75 33.8721 82.3788 33.8723C84.0603 33.8723 85.4235 32.5091 85.4235 30.8275ZM85.5901 30.827C85.5901 32.6006 84.1519 34.0389 82.3783 34.0389C80.6048 34.0387 79.1674 32.6005 79.1674 30.827C79.1676 29.0538 80.605 27.6164 82.3783 27.6161C84.1517 27.6161 85.5899 29.0536 85.5901 30.827Z" fill="black"/>
<path d="M84.5439 30.8341C84.5439 32.0306 83.574 33.0005 82.3775 33.0005C81.181 33.0005 80.211 32.0306 80.211 30.8341C80.211 29.6376 81.181 28.6677 82.3775 28.6677C83.574 28.6677 84.5439 29.6376 84.5439 30.8341Z" fill="black"/>
<path d="M84.3769 30.8336C84.3767 29.7294 83.4813 28.8347 82.377 28.8347C81.2729 28.8349 80.3783 29.7295 80.378 30.8336C80.378 31.9379 81.2728 32.8333 82.377 32.8335L82.3775 33.0005L82.1563 32.9888C81.0637 32.878 80.211 31.9559 80.211 30.8341C80.211 29.6376 81.181 28.6677 82.3775 28.6677C83.574 28.6677 84.5439 29.6376 84.5439 30.8341L84.5322 31.0553C84.4213 32.1478 83.4992 33.0005 82.3775 33.0005L82.377 32.8335C83.4814 32.8335 84.3769 31.938 84.3769 30.8336Z" fill="black"/>
<path d="M65.0473 28.001C65.0473 26.8966 65.9427 26.0012 67.0471 26.0012H74.3796C75.4841 26.0012 76.3794 26.8966 76.3794 28.001V31.8339C76.3794 32.9384 75.4841 33.8337 74.3796 33.8337H67.0471C65.9427 33.8337 65.0473 32.9384 65.0473 31.8339V28.001Z" fill="black"/>
<path d="M91.5473 8.82792C93.5719 8.82817 95.2133 10.4693 95.2133 12.4939V27.409C95.2133 27.501 95.1384 27.576 95.0463 27.576H89.8169C89.2288 27.576 88.6762 27.2936 88.3315 26.8172L86.7456 24.6248C86.3069 24.0186 85.6042 23.6591 84.8559 23.659H73.7153C73.2552 23.6589 72.8823 23.2861 72.8823 22.826V9.66093C72.8823 9.20085 73.2552 8.82805 73.7153 8.82792H91.5473ZM85.2133 10.117C84.7534 10.1172 84.3806 10.4901 84.3803 10.95V17.3367C84.3805 17.7966 84.7534 18.1695 85.2133 18.1697H93.8794C93.9714 18.1697 94.0463 18.0948 94.0463 18.0027V12.95C94.0462 11.3856 92.7777 10.1172 91.2133 10.117H85.2133Z" fill="black"/>
<path d="M72.8813 0.608583C72.8813 0.274681 73.152 0.00399916 73.4859 0.00399916H84.7895C88.9812 0.00399916 92.3791 3.40198 92.3791 7.59359C92.3791 7.72772 92.2704 7.83646 92.1363 7.83646H73.5479C73.1797 7.83646 72.8813 7.53802 72.8813 7.16987V0.608583Z" fill="black"/>
<path d="M88.7126 29.3342C88.7126 28.9661 89.0111 28.6677 89.3792 28.6677H94.5453C94.9135 28.6677 95.2119 28.9661 95.2119 29.3342V33.1672C95.2119 33.5353 94.9135 33.8337 94.5453 33.8337H89.3792C89.0111 33.8337 88.7126 33.5353 88.7126 33.1672V29.3342Z" fill="black"/>
<path d="M97.8696 9.50876H94.9975C94.562 8.99923 93.9157 8.67483 93.1928 8.67478C93.1398 8.67478 93.0877 8.68044 93.0376 8.6904V8.67478H97.8696V9.50876Z" fill="black"/>
<path d="M97.8725 8.667H100.142V12.9999H97.8725V8.667Z" fill="black"/>
<path d="M0.324153 11.9493C0.324153 5.34991 5.67406 0 12.2735 0H59.0751C65.6746 0 71.0245 5.34991 71.0245 11.9493C71.0245 18.5488 65.6746 23.8987 59.0751 23.8987H12.2735C5.67407 23.8987 0.324153 18.5488 0.324153 11.9493Z" fill="black"/>
</svg>
